#!OML:ASF G:\JayActor3\Patient Classification 1\Patient 1\Session 6\male.ASF
:FULLY-SPECIFIED
:DEGREES
281
root 6.84295 16.6615 -6.10521 54.2828 -83.1514 -56.3555
lowerback 9.18515 -0.380228 5.61037
upperback 15.6313 -1.40355 -1.71786
thorax 11.7471 -0.368351 -5.11137
lowerneck -8.04665 -0.560598 0.827919
upperneck 41.9009 -4.29934 1.15062
head 16.4314 -2.2054 -0.510673
rclavicle 1.74931e-014 1.82882e-014
rhumerus -0.689611 61.3601 -12.2891
rradius 56.027
rwrist 14.8838
rhand 29.8668 -17.3485
rfingers 7.12502
rthumb 53.5871 -36.4619
lclavicle 1.74931e-014 1.82882e-014
lhumerus 17.1547 -41.6191 -2.11054
lradius 38.9008
lwrist 5.81127
lhand 19.6552 43.4393
lfingers 7.12502
lthumb 44.2138 67.242
rfemur -9.44417 -2.70446 28.4606
rtibia 29.3864
rfoot -19.6773 -19.0612
rtoes 6.08639
lfemur -54.7042 31.3733 -7.56588
ltibia 85.7156
lfoot 32.7197 0.688983
ltoes 19.6435
282
root 6.88187 16.6573 -6.15463 51.7677 -82.9509 -53.7479
lowerback 9.76657 -0.375964 5.23662
upperback 15.7731 -1.41428 -1.57153
thorax 11.5734 -0.443019 -4.73033
lowerneck -7.9864 -0.554252 0.761458
upperneck 41.8713 -4.07648 0.721857
head 16.3816 -2.17037 -0.648525
rclavicle 0 3.18055e-014
rhumerus -1.01985 58.6292 -12.9912
rradius 53.7578
rwrist 15.0939
rhand 28.0566 -17.2205
rfingers 7.12502
rthumb 51.9516 -37.3549
lclavicle 0 3.18055e-014
lhumerus 16.1093 -37.5641 0.0738557
lradius 37.1412
lwrist 5.64707
lhand 16.447 41.9625
lfingers 7.12502
lthumb 41.2119 66.8111
rfemur -9.76967 -3.00909 28.6617
rtibia 29.4416
rfoot -19.6083 -19.4161
rtoes 5.78876
lfemur -57.3284 31.9781 -8.39805
ltibia 88.0565
lfoot 33.191 1.26097
ltoes 20.5926
283
root 6.9202 16.6588 -6.20163 48.5824 -82.8336 -50.4116
lowerback 10.3296 -0.356143 4.7677
upperback 15.8722 -1.40029 -1.47873
thorax 11.3617 -0.511022 -4.35444
lowerneck -7.96971 -0.547385 0.793053
upperneck 41.9438 -3.89655 0.287319
head 16.3992 -2.13956 -0.816948
rclavicle 1.11319e-014 2.3059e-014
rhumerus -1.65365 55.4708 -14.0908
rradius 51.4558
rwrist 15.3009
rhand 24.9075 -17.1432
rfingers 7.12502
rthumb 49.0762 -38.8378
lclavicle 1.11319e-014 2.3059e-014
lhumerus 15.2994 -33.3938 2.06026
lradius 35.6152
lwrist 5.33429
lhand 13.0053 40.3734
lfingers 7.12502
lthumb 37.9709 66.1805
rfemur -10.0876 -3.27577 28.6678
rtibia 29.4828
rfoot -19.7995 -19.527
rtoes 6.25395
lfemur -59.937 32.5082 -9.48698
ltibia 90.3002
lfoot 33.5723 1.94691
ltoes 21.633
284
root 6.95466 16.6611 -6.24724 44.9782 -82.7546 -46.6645
lowerback 10.8479 -0.328065 4.19447
upperback 15.9837 -1.38634 -1.39516
thorax 11.1926 -0.587973 -3.93306
lowerneck -7.87226 -0.552535 0.769266
upperneck 41.9261 -3.74248 -0.0639357
head 16.3525 -2.11845 -0.938799
rclavicle -5.56597e-015 9.54166e-015
rhumerus -2.03453 51.7544 -14.9895
rradius 49.2165
rwrist 15.6276
rhand 21.9606 -16.9565
rfingers 7.12502
rthumb 46.3569 -39.9009
lclavicle -5.56597e-015 9.54166e-015
lhumerus 14.763 -28.9861 3.9345
lradius 34.2775
lwrist 5.53666
lhand 9.74307 38.7931
lfingers 7.12502
lthumb 34.8826 65.3765
rfemur -10.3733 -3.48562 28.5672
rtibia 29.4991
rfoot -19.7778 -19.8199
rtoes 5.92919
lfemur -62.4797 32.9828 -10.7264
ltibia 92.4741
lfoot 33.8669 2.5608
ltoes 22.4686
285
root 6.98574 16.66 -6.29146 42.5157 -82.5766 -44.0541
lowerback 11.337 -0.293979 3.76499
upperback 16.0914 -1.36733 -1.28504
thorax 11.0418 -0.646891 -3.56478
lowerneck -7.77788 -0.566178 0.774835
upperneck 41.9099 -3.62461 -0.382851
head 16.309 -2.10399 -1.05738
rclavicle 1.11319e-014 9.54166e-015
rhumerus -2.39352 47.4523 -16.0106
rradius 47.0566
rwrist 15.7438
rhand 18.497 -16.796
rfingers 7.12502
rthumb 43.1324 -40.995
lclavicle 1.11319e-014 9.54166e-015
lhumerus 14.4136 -24.6813 5.61389
lradius 33.1323
lwrist 5.7484
lhand 6.35894 37.1154
lfingers 7.12502
lthumb 31.6653 64.3879
rfemur -10.7014 -3.55248 28.6051
rtibia 29.6022
rfoot -19.9033 -20.0049
rtoes 6.13012
lfemur -65.0407 33.5041 -11.8761
ltibia 94.6127
lfoot 34.0849 2.90356
ltoes 22.8245
286
root 7.01313 16.6606 -6.33031 40.0492 -82.3736 -41.4424
lowerback 11.7854 -0.263343 3.41035
upperback 16.1929 -1.35002 -1.21763
thorax 10.909 -0.69316 -3.28638
lowerneck -7.61903 -0.586555 0.859165
upperneck 41.9008 -3.55649 -0.666377
head 16.2537 -2.0954 -1.18115
rclavicle 2.06736e-014 3.73715e-014
rhumerus -2.81977 42.6408 -17.2302
rradius 44.9792
rwrist 15.6813
rhand 14.3336 -16.5249
rfingers 7.12502
rthumb 39.224 -41.9803
lclavicle 2.06736e-014 3.73715e-014
lhumerus 14.2955 -20.2477 7.20654
lradius 32.1675
lwrist 6.13139
lhand 2.44013 34.9924
lfingers 7.12502
lthumb 27.9254 62.9358
rfemur -11.0667 -3.75918 28.6079
rtibia 29.8243
rfoot -19.9749 -20.1309
rtoes 5.99119
lfemur -67.5358 33.9257 -13.0529
ltibia 96.7141
lfoot 34.1572 3.54338
ltoes 23.6973
287
root 7.04354 16.6505 -6.3644 38.6122 -82.1518 -39.7329
lowerback 12.1036 -0.231121 3.17343
upperback 16.2843 -1.33002 -1.13146
thorax 10.841 -0.72297 -3.05656
lowerneck -7.59333 -0.640538 0.890226
upperneck 41.9456 -3.53345 -0.943616
head 16.2618 -2.11015 -1.30365
rclavicle 2.14687e-014 2.06736e-014
rhumerus -3.03526 37.0693 -18.3775
rradius 43.0821
rwrist 16.2747
rhand 10.637 -16.0727
rfingers 7.12502
rthumb 35.7302 -42.455
lclavicle 2.14687e-014 2.06736e-014
lhumerus 14.3228 -16.0077 8.69706
lradius 31.3256
lwrist 6.28655
lhand -0.79662 33.6553
lfingers 7.12502
lthumb 24.8271 62.0635
rfemur -11.713 -3.92421 28.6936
rtibia 30.2158
rfoot -20.0156 -20.2537
rtoes 5.75701
lfemur -70.2482 34.3458 -14.3107
ltibia 98.7898
lfoot 34.1287 4.0732
ltoes 23.9885
288
root 7.07444 16.6287 -6.4052 37.5109 -81.6773 -38.3575
lowerback 12.4602 -0.24684 3.04214
upperback 16.3565 -1.36912 -0.975906
thorax 10.7261 -0.775524 -2.80655
lowerneck -7.44569 -0.681128 0.964913
upperneck 41.8908 -3.50424 -1.18063
head 16.1862 -2.112 -1.40914
rclavicle 1.59028e-014 1.74931e-014
rhumerus -3.19819 31.1854 -19.5348
rradius 41.4535
rwrist 16.6542
rhand 6.44073 -15.8829
rfingers 7.12502
rthumb 31.7432 -43.14
lclavicle 1.59028e-014 1.74931e-014
lhumerus 14.5066 -11.4757 10.3069
lradius 30.7155
lwrist 6.82786
lhand -4.71546 31.6176
lfingers 7.12502
lthumb 21.0668 60.4933
rfemur -12.4619 -4.07704 29.025
rtibia 30.7618
rfoot -20.1893 -20.5294
rtoes 5.67231
lfemur -73.0936 34.5462 -15.4923
ltibia 100.731
lfoot 34.4424 2.81942
ltoes 21.8929
289
root 7.10231 16.6075 -6.43932 37.8984 -81.1793 -38.4689
lowerback 12.7737 -0.248606 3.15834
upperback 16.3741 -1.37034 -0.821797
thorax 10.5743 -0.779912 -2.69646
lowerneck -6.97078 -0.766858 0.895801
upperneck 41.5726 -3.60593 -1.09116
head 15.9009 -2.15315 -1.34823
rclavicle -3.18055e-015 2.8625e-014
rhumerus -3.35977 25.0834 -20.7344
rradius 40.15
rwrist 16.9364
rhand 2.29709 -15.7156
rfingers 7.12502
rthumb 27.7887 -43.6812
lclavicle -3.18055e-015 2.8625e-014
lhumerus 14.8271 -7.27995 11.826
lradius 30.3074
lwrist 7.52265
lhand -8.94838 29.7129
lfingers 7.12502
lthumb 16.9961 58.9894
rfemur -13.2897 -4.13759 29.5337
rtibia 31.425
rfoot -20.3333 -20.8279
rtoes 5.46924
lfemur -75.7857 34.8475 -16.3492
ltibia 102.667
lfoot 34.4901 2.57172
ltoes 22.0778
